# xmcd
#
# Track frame offsets: 
#        183
#        25670
#        46008
#        62953
#        83718
#        97313
#        112218
#        132010
#        150745
#        169303
#
# Disc length: 2504 seconds
#
# Revision: 6
# Processed by: cddbd v1.5.2PL0 Copyright (c) Steve Scherf et al.
# Submitted via: ExactAudioCopyFreeDBPlugin 1.0
#
DISCID=8209c60a,8409c50a,8509c60a
DTITLE=John Lee Hooker - The Healer
DYEAR=1989
DGENRE=Blues
TTITLE0=The Healer
TTITLE1=I'm In The Mood
TTITLE2=Baby Lee
TTITLE3=Cuttin' Out
TTITLE4=Think Twice Before You Go
TTITLE5=Sally Mae
TTITLE6=That's Alright
TTITLE7=Rockin' Chair
TTITLE8=My Dream
TTITLE9=No Substitute
EXTD=
EXTT0=
EXTT1=
EXTT2=
EXTT3=
EXTT4=
EXTT5=
EXTT6=
EXTT7=
EXTT8=
EXTT9=
PLAYORDER=
